ffmpeg started on 2026-03-24 at 12:51:03
Report written to "D:\Convert\FFMetrics\reports\psnr_report-6.txt"
Log level: 32
Command line:
ffmpeg -hide_banner -nostdin -r 24000/1001 -i "F:\\\xc0\xed\xe8\xec\xe5\\LightFamily\\\xcc\xee\xe6\xe5\xf2 \xeb\xe8 \xf1\xf3\xf9\xe5\xf1\xf2\xe2\xee\xe2\xe0\xf2\xfc \xe4\xf0\xf3\xe6\xe1\xe0 \xec\xe5\xe6\xe4\xf3 \xec\xf3\xe6\xf7\xe8\xed\xee\xe9 \xe8 \xe6\xe5\xed\xf9\xe8\xed\xee\xe9 (\xcd\xe5\xf2, \xfd\xf2\xee \xed\xe5 \xf2\xe0\xea!)\\LightFamilyDUB_\xcc\xee\xe6\xe5\xf2_\xeb\xe8_\xf1\xf3\xf9\xe5\xf1\xf2\xe2\xee\xe2\xe0\xf2\xfc_\xe4\xf0\xf3\xe6\xe1\xe0_\xec\xe5\xe6\xe4\xf3_\xef\xe0\xf0\xed\xe5\xec_\xe8_\xe4\xe5\xe2\xf3\xf8\xea\xee\xe9_05_HEVC.mkv" -r 24000/1001 -i "F:\\\xc0\xed\xe8\xec\xe5\\LightFamily\\\xcc\xee\xe6\xe5\xf2 \xeb\xe8 \xf1\xf3\xf9\xe5\xf1\xf2\xe2\xee\xe2\xe0\xf2\xfc \xe4\xf0\xf3\xe6\xe1\xe0 \xec\xe5\xe6\xe4\xf3 \xec\xf3\xe6\xf7\xe8\xed\xee\xe9 \xe8 \xe6\xe5\xed\xf9\xe8\xed\xee\xe9 (\xcd\xe5\xf2, \xfd\xf2\xee \xed\xe5 \xf2\xe0\xea!)\\LightFamilyDUB_\xcc\xee\xe6\xe5\xf2_\xeb\xe8_\xf1\xf3\xf9\xe5\xf1\xf2\xe2\xee\xe2\xe0\xf2\xfc_\xe4\xf0\xf3\xe6\xe1\xe0_\xec\xe5\xe6\xe4\xf3_\xef\xe0\xf0\xed\xe5\xec_\xe8_\xe4\xe5\xe2\xf3\xf8\xea\xee\xe9_05.mp4" -lavfi "[0:v]settb=AVTB,setpts=PTS-STARTPTS,format=pix_fmts=yuv420p10le,fps=24000/1001,scale=1920:1080:flags=lanczos:param0=3:out_range=limited:out_color_matrix=bt709:out_chroma_loc=left,setsar=1/1,setdar=(1920/1080)*(1/1),colorspace=format=yuv420p10:range=tv:primaries=bt709:trc=bt709:space=bt709:fast=0[main];[1:v]settb=AVTB,setpts=PTS-STARTPTS,format=pix_fmts=yuv420p,fps=24000/1001,scale=1920:1080:flags=lanczos:param0=3:out_range=limited:out_color_matrix=bt709:out_chroma_loc=left,setsar=1/1,setdar=(1920/1080)*(1/1),colorspace=format=yuv420p:range=tv:primaries=bt709:trc=bt709:space=bt709:fast=0[ref];[main][ref]psnr=eof_action=endall:stats_file='D\\:/Convert/FFMetrics/logs/psnr_logfile-6.txt'" -f null -
Input #0, matroska,webm, from 'F:\Аниме\LightFamily\Может ли существовать дружба между мужчиной и женщиной (Нет, это не так!)\LightFamilyDUB_Может_ли_существовать_дружба_между_парнем_и_девушкой_05_HEVC.mkv':
  Metadata:
    COMPATIBLE_BRANDS: mp42mp41
    MAJOR_BRAND     : mp42
    MINOR_VERSION   : 0
    ENCODER         : Lavf61.7.100
  Duration: 00:23:39.99, start: -0.021000, bitrate: 937 kb/s
  Stream #0:0(eng): Video: hevc (Main 10), yuv420p10le(tv, bt709, progressive), 1920x1080 [SAR 1:1 DAR 16:9], 23.98 fps, 23.98 tbr, 1k tbn (default)
      Metadata:
        HANDLER_NAME    : Mainconcept Video Media Handler
        VENDOR_ID       : [0][0][0][0]
        ENCODER         : Lavc61.19.100 libx265
        BPS             : 740143
        DURATION        : 00:23:39.960708333
        NUMBER_OF_FRAMES: 34045
        NUMBER_OF_BYTES : 131371766
        _STATISTICS_WRITING_APP: mkvpropedit v94.0 ('Initiate') 64-bit
        _STATISTICS_WRITING_DATE_UTC: 2026-03-23 13:26:29
        _STATISTICS_TAGS: BPS DURATION NUMBER_OF_FRAMES NUMBER_OF_BYTES
  Stream #0:1(eng): Audio: aac (LC), 48000 Hz, stereo, fltp (default)
      Metadata:
        HANDLER_NAME    : #Mainconcept MP4 Sound Media Handler
        VENDOR_ID       : [0][0][0][0]
        ENCODER         : Lavc61.19.100 aac
        BPS             : 192959
        DURATION        : 00:23:39.968000000
        NUMBER_OF_FRAMES: 66562
        NUMBER_OF_BYTES : 34249517
        _STATISTICS_WRITING_APP: mkvpropedit v94.0 ('Initiate') 64-bit
        _STATISTICS_WRITING_DATE_UTC: 2026-03-23 13:26:29
        _STATISTICS_TAGS: BPS DURATION NUMBER_OF_FRAMES NUMBER_OF_BYTES
Input #1, mov,mp4,m4a,3gp,3g2,mj2, from 'F:\Аниме\LightFamily\Может ли существовать дружба между мужчиной и женщиной (Нет, это не так!)\LightFamilyDUB_Может_ли_существовать_дружба_между_парнем_и_девушкой_05.mp4':
  Metadata:
    major_brand     : mp42
    minor_version   : 0
    compatible_brands: mp42mp41
    creation_time   : 2025-05-18T17:15:29.000000Z
  Duration: 00:23:39.96, start: 0.000000, bitrate: 8387 kb/s
  Stream #1:0[0x1](eng): Video: h264 (Main) (avc1 / 0x31637661), yuv420p(tv, bt709, progressive), 1920x1080, 8002 kb/s, 23.98 fps, 23.98 tbr, 24k tbn (default)
      Metadata:
        creation_time   : 2025-05-18T17:15:29.000000Z
        handler_name    : Mainconcept Video Media Handler
        vendor_id       : [0][0][0][0]
        encoder         : AVC Coding
  Stream #1:1[0x2](eng): Audio: aac (LC) (mp4a / 0x6134706D), 48000 Hz, stereo, fltp, 381 kb/s (default)
      Metadata:
        creation_time   : 2025-05-18T17:15:29.000000Z
        handler_name    : #Mainconcept MP4 Sound Media Handler
        vendor_id       : [0][0][0][0]
Stream mapping:
  Stream #0:0 (hevc) -> settb:default
  Stream #1:0 (h264) -> settb:default
  psnr:default -> Stream #0:0 (wrapped_avframe)
  Stream #0:1 -> #0:1 (aac (native) -> pcm_s16le (native))
Output #0, null, to 'pipe:':
  Metadata:
    COMPATIBLE_BRANDS: mp42mp41
    MAJOR_BRAND     : mp42
    MINOR_VERSION   : 0
    encoder         : Lavf61.7.100
  Stream #0:0: Video: wrapped_avframe, yuv420p10le(tv, bt709, progressive), 1920x1080 [SAR 1:1 DAR 16:9], q=2-31, 200 kb/s, 23.98 fps, 23.98 tbn
      Metadata:
        encoder         : Lavc61.19.100 wrapped_avframe
  Stream #0:1(eng): Audio: pcm_s16le, 48000 Hz, stereo, s16, 1536 kb/s (default)
      Metadata:
        HANDLER_NAME    : #Mainconcept MP4 Sound Media Handler
        VENDOR_ID       : [0][0][0][0]
        _STATISTICS_TAGS: BPS DURATION NUMBER_OF_FRAMES NUMBER_OF_BYTES
        BPS             : 192959
        DURATION        : 00:23:39.968000000
        NUMBER_OF_FRAMES: 66562
        NUMBER_OF_BYTES : 34249517
        _STATISTICS_WRITING_APP: mkvpropedit v94.0 ('Initiate') 64-bit
        _STATISTICS_WRITING_DATE_UTC: 2026-03-23 13:26:29
        encoder         : Lavc61.19.100 pcm_s16le
frame=  140 fps=0.0 q=-0.0 size=N/A time=00:00:05.83 bitrate=N/A speed=11.5x    frame=  336 fps=324 q=-0.0 size=N/A time=00:00:14.01 bitrate=N/A speed=13.5x    frame=  518 fps=335 q=-0.0 size=N/A time=00:00:21.60 bitrate=N/A speed=  14x    frame=  701 fps=341 q=-0.0 size=N/A time=00:00:29.23 bitrate=N/A speed=14.2x    frame=  896 fps=347 q=-0.0 size=N/A time=00:00:37.37 bitrate=N/A speed=14.5x    frame= 1084 fps=351 q=-0.0 size=N/A time=00:00:45.21 bitrate=N/A speed=14.6x    frame= 1265 fps=351 q=-0.0 size=N/A time=00:00:52.76 bitrate=N/A speed=14.6x    frame= 1426 fps=345 q=-0.0 size=N/A time=00:00:59.47 bitrate=N/A speed=14.4x    frame= 1581 fps=341 q=-0.0 size=N/A time=00:01:05.94 bitrate=N/A speed=14.2x    frame= 1763 fps=342 q=-0.0 size=N/A time=00:01:13.53 bitrate=N/A speed=14.3x    frame= 1938 fps=342 q=-0.0 size=N/A time=00:01:20.83 bitrate=N/A speed=14.3x    frame= 2109 fps=340 q=-0.0 size=N/A time=00:01:27.96 bitrate=N/A speed=14.2x    frame= 2277 fps=340 q=-0.0 size=N/A time=00:01:34.96 bitrate=N/A speed=14.2x    frame= 2440 fps=338 q=-0.0 size=N/A time=00:01:41.76 bitrate=N/A speed=14.1x    frame= 2613 fps=338 q=-0.0 size=N/A time=00:01:48.98 bitrate=N/A speed=14.1x    frame= 2769 fps=336 q=-0.0 size=N/A time=00:01:55.49 bitrate=N/A speed=  14x    frame= 2943 fps=336 q=-0.0 size=N/A time=00:02:02.74 bitrate=N/A speed=  14x    frame= 3113 fps=335 q=-0.0 size=N/A time=00:02:09.83 bitrate=N/A speed=  14x    frame= 3288 fps=336 q=-0.0 size=N/A time=00:02:17.13 bitrate=N/A speed=  14x    frame= 3476 fps=337 q=-0.0 size=N/A time=00:02:24.97 bitrate=N/A speed=14.1x    frame= 3667 fps=338 q=-0.0 size=N/A time=00:02:32.94 bitrate=N/A speed=14.1x    frame= 3857 fps=340 q=-0.0 size=N/A time=00:02:40.86 bitrate=N/A speed=14.2x    frame= 4051 fps=342 q=-0.0 size=N/A time=00:02:48.96 bitrate=N/A speed=14.2x    frame= 4236 fps=342 q=-0.0 size=N/A time=00:02:56.67 bitrate=N/A speed=14.3x    frame= 4428 fps=344 q=-0.0 size=N/A time=00:03:04.68 bitrate=N/A speed=14.3x    frame= 4629 fps=345 q=-0.0 size=N/A time=00:03:13.06 bitrate=N/A speed=14.4x    frame= 4824 fps=347 q=-0.0 size=N/A time=00:03:21.20 bitrate=N/A speed=14.5x    frame= 5014 fps=347 q=-0.0 size=N/A time=00:03:29.12 bitrate=N/A speed=14.5x    frame= 5212 fps=348 q=-0.0 size=N/A time=00:03:37.38 bitrate=N/A speed=14.5x    frame= 5408 fps=349 q=-0.0 size=N/A time=00:03:45.55 bitrate=N/A speed=14.6x    frame= 5598 fps=350 q=-0.0 size=N/A time=00:03:53.48 bitrate=N/A speed=14.6x    frame= 5792 fps=351 q=-0.0 size=N/A time=00:04:01.57 bitrate=N/A speed=14.6x    frame= 5981 fps=351 q=-0.0 size=N/A time=00:04:09.45 bitrate=N/A speed=14.6x    frame= 6180 fps=352 q=-0.0 size=N/A time=00:04:17.75 bitrate=N/A speed=14.7x    frame= 6375 fps=353 q=-0.0 size=N/A time=00:04:25.89 bitrate=N/A speed=14.7x    frame= 6564 fps=353 q=-0.0 size=N/A time=00:04:33.77 bitrate=N/A speed=14.7x    frame= 6755 fps=354 q=-0.0 size=N/A time=00:04:41.73 bitrate=N/A speed=14.8x    frame= 6947 fps=354 q=-0.0 size=N/A time=00:04:49.74 bitrate=N/A speed=14.8x    frame= 7139 fps=355 q=-0.0 size=N/A time=00:04:57.75 bitrate=N/A speed=14.8x    frame= 7334 fps=355 q=-0.0 size=N/A time=00:05:05.88 bitrate=N/A speed=14.8x    frame= 7540 fps=356 q=-0.0 size=N/A time=00:05:14.48 bitrate=N/A speed=14.9x    frame= 7730 fps=357 q=-0.0 size=N/A time=00:05:22.40 bitrate=N/A speed=14.9x    frame= 7908 fps=356 q=-0.0 size=N/A time=00:05:29.82 bitrate=N/A speed=14.9x    frame= 8109 fps=357 q=-0.0 size=N/A time=00:05:38.21 bitrate=N/A speed=14.9x    frame= 8297 fps=357 q=-0.0 size=N/A time=00:05:46.05 bitrate=N/A speed=14.9x    frame= 8490 fps=358 q=-0.0 size=N/A time=00:05:54.10 bitrate=N/A speed=14.9x    frame= 8683 fps=358 q=-0.0 size=N/A time=00:06:02.15 bitrate=N/A speed=14.9x    frame= 8875 fps=358 q=-0.0 size=N/A time=00:06:10.16 bitrate=N/A speed=14.9x    frame= 9062 fps=359 q=-0.0 size=N/A time=00:06:17.96 bitrate=N/A speed=  15x    frame= 9265 fps=359 q=-0.0 size=N/A time=00:06:26.42 bitrate=N/A speed=  15x    frame= 9455 fps=359 q=-0.0 size=N/A time=00:06:34.35 bitrate=N/A speed=  15x    frame= 9646 fps=360 q=-0.0 size=N/A time=00:06:42.31 bitrate=N/A speed=  15x    frame= 9824 fps=359 q=-0.0 size=N/A time=00:06:49.74 bitrate=N/A speed=  15x    frame=10009 fps=359 q=-0.0 size=N/A time=00:06:57.45 bitrate=N/A speed=  15x    frame=10187 fps=359 q=-0.0 size=N/A time=00:07:04.88 bitrate=N/A speed=  15x    frame=10367 fps=359 q=-0.0 size=N/A time=00:07:12.39 bitrate=N/A speed=  15x    frame=10570 fps=359 q=-0.0 size=N/A time=00:07:20.85 bitrate=N/A speed=  15x    frame=10761 fps=360 q=-0.0 size=N/A time=00:07:28.82 bitrate=N/A speed=  15x    frame=10955 fps=360 q=-0.0 size=N/A time=00:07:36.91 bitrate=N/A speed=  15x    frame=11143 fps=360 q=-0.0 size=N/A time=00:07:44.75 bitrate=N/A speed=  15x    frame=11334 fps=360 q=-0.0 size=N/A time=00:07:52.72 bitrate=N/A speed=  15x    frame=11526 fps=360 q=-0.0 size=N/A time=00:08:00.77 bitrate=N/A speed=  15x    frame=11717 fps=361 q=-0.0 size=N/A time=00:08:08.69 bitrate=N/A speed=  15x    frame=11914 fps=361 q=-0.0 size=N/A time=00:08:16.91 bitrate=N/A speed=  15x    frame=12104 fps=361 q=-0.0 size=N/A time=00:08:24.83 bitrate=N/A speed=15.1x    frame=12290 fps=361 q=-0.0 size=N/A time=00:08:32.59 bitrate=N/A speed=15.1x    frame=12483 fps=361 q=-0.0 size=N/A time=00:08:40.64 bitrate=N/A speed=15.1x    frame=12680 fps=361 q=-0.0 size=N/A time=00:08:48.86 bitrate=N/A speed=15.1x    frame=12866 fps=361 q=-0.0 size=N/A time=00:08:56.61 bitrate=N/A speed=15.1x    frame=13054 fps=362 q=-0.0 size=N/A time=00:09:04.46 bitrate=N/A speed=15.1x    frame=13247 fps=362 q=-0.0 size=N/A time=00:09:12.51 bitrate=N/A speed=15.1x    frame=13446 fps=362 q=-0.0 size=N/A time=00:09:20.81 bitrate=N/A speed=15.1x    frame=13639 fps=362 q=-0.0 size=N/A time=00:09:28.85 bitrate=N/A speed=15.1x    frame=13835 fps=362 q=-0.0 size=N/A time=00:09:37.03 bitrate=N/A speed=15.1x    frame=14033 fps=363 q=-0.0 size=N/A time=00:09:45.29 bitrate=N/A speed=15.1x    frame=14225 fps=363 q=-0.0 size=N/A time=00:09:53.30 bitrate=N/A speed=15.1x    frame=14417 fps=363 q=-0.0 size=N/A time=00:10:01.30 bitrate=N/A speed=15.1x    frame=14620 fps=363 q=-0.0 size=N/A time=00:10:09.77 bitrate=N/A speed=15.2x    frame=14812 fps=363 q=-0.0 size=N/A time=00:10:17.78 bitrate=N/A speed=15.2x    frame=14996 fps=363 q=-0.0 size=N/A time=00:10:25.45 bitrate=N/A speed=15.2x    frame=15186 fps=364 q=-0.0 size=N/A time=00:10:33.38 bitrate=N/A speed=15.2x    frame=15386 fps=364 q=-0.0 size=N/A time=00:10:41.72 bitrate=N/A speed=15.2x    frame=15572 fps=364 q=-0.0 size=N/A time=00:10:49.48 bitrate=N/A speed=15.2x    frame=15762 fps=364 q=-0.0 size=N/A time=00:10:57.40 bitrate=N/A speed=15.2x    frame=15955 fps=364 q=-0.0 size=N/A time=00:11:05.45 bitrate=N/A speed=15.2x    frame=16152 fps=364 q=-0.0 size=N/A time=00:11:13.67 bitrate=N/A speed=15.2x    frame=16339 fps=364 q=-0.0 size=N/A time=00:11:21.47 bitrate=N/A speed=15.2x    frame=16540 fps=364 q=-0.0 size=N/A time=00:11:29.85 bitrate=N/A speed=15.2x    frame=16732 fps=364 q=-0.0 size=N/A time=00:11:37.86 bitrate=N/A speed=15.2x    frame=16918 fps=364 q=-0.0 size=N/A time=00:11:45.62 bitrate=N/A speed=15.2x    frame=17113 fps=365 q=-0.0 size=N/A time=00:11:53.75 bitrate=N/A speed=15.2x    frame=17284 fps=364 q=-0.0 size=N/A time=00:12:00.88 bitrate=N/A speed=15.2x    frame=17473 fps=364 q=-0.0 size=N/A time=00:12:08.76 bitrate=N/A speed=15.2x    frame=17660 fps=364 q=-0.0 size=N/A time=00:12:16.56 bitrate=N/A speed=15.2x    frame=17849 fps=364 q=-0.0 size=N/A time=00:12:24.45 bitrate=N/A speed=15.2x    frame=18039 fps=364 q=-0.0 size=N/A time=00:12:32.37 bitrate=N/A speed=15.2x    frame=18233 fps=364 q=-0.0 size=N/A time=00:12:40.46 bitrate=N/A speed=15.2x    frame=18420 fps=364 q=-0.0 size=N/A time=00:12:48.26 bitrate=N/A speed=15.2x    frame=18619 fps=365 q=-0.0 size=N/A time=00:12:56.56 bitrate=N/A speed=15.2x    frame=18814 fps=365 q=-0.0 size=N/A time=00:13:04.70 bitrate=N/A speed=15.2x    frame=18998 fps=365 q=-0.0 size=N/A time=00:13:12.37 bitrate=N/A speed=15.2x    frame=19184 fps=365 q=-0.0 size=N/A time=00:13:20.13 bitrate=N/A speed=15.2x    frame=19375 fps=365 q=-0.0 size=N/A time=00:13:28.09 bitrate=N/A speed=15.2x    frame=19561 fps=365 q=-0.0 size=N/A time=00:13:35.85 bitrate=N/A speed=15.2x    frame=19745 fps=365 q=-0.0 size=N/A time=00:13:43.53 bitrate=N/A speed=15.2x    frame=19938 fps=365 q=-0.0 size=N/A time=00:13:51.58 bitrate=N/A speed=15.2x    frame=20125 fps=365 q=-0.0 size=N/A time=00:13:59.38 bitrate=N/A speed=15.2x    frame=20310 fps=365 q=-0.0 size=N/A time=00:14:07.09 bitrate=N/A speed=15.2x    frame=20488 fps=364 q=-0.0 size=N/A time=00:14:14.52 bitrate=N/A speed=15.2x    frame=20678 fps=365 q=-0.0 size=N/A time=00:14:22.44 bitrate=N/A speed=15.2x    frame=20868 fps=364 q=-0.0 size=N/A time=00:14:30.36 bitrate=N/A speed=15.2x    frame=21060 fps=365 q=-0.0 size=N/A time=00:14:38.37 bitrate=N/A speed=15.2x    frame=21249 fps=365 q=-0.0 size=N/A time=00:14:46.26 bitrate=N/A speed=15.2x    frame=21449 fps=365 q=-0.0 size=N/A time=00:14:54.60 bitrate=N/A speed=15.2x    frame=21639 fps=365 q=-0.0 size=N/A time=00:15:02.52 bitrate=N/A speed=15.2x    frame=21827 fps=365 q=-0.0 size=N/A time=00:15:10.36 bitrate=N/A speed=15.2x    frame=22021 fps=365 q=-0.0 size=N/A time=00:15:18.45 bitrate=N/A speed=15.2x    frame=22197 fps=365 q=-0.0 size=N/A time=00:15:25.79 bitrate=N/A speed=15.2x    frame=22365 fps=364 q=-0.0 size=N/A time=00:15:32.80 bitrate=N/A speed=15.2x    frame=22548 fps=364 q=-0.0 size=N/A time=00:15:40.43 bitrate=N/A speed=15.2x    frame=22738 fps=364 q=-0.0 size=N/A time=00:15:48.36 bitrate=N/A speed=15.2x    frame=22922 fps=364 q=-0.0 size=N/A time=00:15:56.03 bitrate=N/A speed=15.2x    frame=23112 fps=364 q=-0.0 size=N/A time=00:16:03.96 bitrate=N/A speed=15.2x    frame=23300 fps=364 q=-0.0 size=N/A time=00:16:11.80 bitrate=N/A speed=15.2x    frame=23498 fps=364 q=-0.0 size=N/A time=00:16:20.06 bitrate=N/A speed=15.2x    frame=23683 fps=364 q=-0.0 size=N/A time=00:16:27.77 bitrate=N/A speed=15.2x    frame=23878 fps=365 q=-0.0 size=N/A time=00:16:35.91 bitrate=N/A speed=15.2x    frame=24073 fps=365 q=-0.0 size=N/A time=00:16:44.04 bitrate=N/A speed=15.2x    frame=24265 fps=365 q=-0.0 size=N/A time=00:16:52.05 bitrate=N/A speed=15.2x    frame=24451 fps=365 q=-0.0 size=N/A time=00:16:59.81 bitrate=N/A speed=15.2x    frame=24642 fps=365 q=-0.0 size=N/A time=00:17:07.77 bitrate=N/A speed=15.2x    frame=24833 fps=365 q=-0.0 size=N/A time=00:17:15.74 bitrate=N/A speed=15.2x    frame=25024 fps=365 q=-0.0 size=N/A time=00:17:23.70 bitrate=N/A speed=15.2x    frame=25212 fps=365 q=-0.0 size=N/A time=00:17:31.55 bitrate=N/A speed=15.2x    frame=25407 fps=365 q=-0.0 size=N/A time=00:17:39.68 bitrate=N/A speed=15.2x    frame=25593 fps=365 q=-0.0 size=N/A time=00:17:47.44 bitrate=N/A speed=15.2x    frame=25777 fps=365 q=-0.0 size=N/A time=00:17:55.11 bitrate=N/A speed=15.2x    frame=25970 fps=365 q=-0.0 size=N/A time=00:18:03.16 bitrate=N/A speed=15.2x    frame=26156 fps=365 q=-0.0 size=N/A time=00:18:10.92 bitrate=N/A speed=15.2x    frame=26342 fps=365 q=-0.0 size=N/A time=00:18:18.68 bitrate=N/A speed=15.2x    frame=26527 fps=365 q=-0.0 size=N/A time=00:18:26.39 bitrate=N/A speed=15.2x    frame=26723 fps=365 q=-0.0 size=N/A time=00:18:34.57 bitrate=N/A speed=15.2x    frame=26919 fps=365 q=-0.0 size=N/A time=00:18:42.74 bitrate=N/A speed=15.2x    frame=27111 fps=365 q=-0.0 size=N/A time=00:18:50.75 bitrate=N/A speed=15.2x    frame=27300 fps=365 q=-0.0 size=N/A time=00:18:58.63 bitrate=N/A speed=15.2x    frame=27496 fps=365 q=-0.0 size=N/A time=00:19:06.81 bitrate=N/A speed=15.2x    frame=27683 fps=365 q=-0.0 size=N/A time=00:19:14.61 bitrate=N/A speed=15.2x    frame=27875 fps=365 q=-0.0 size=N/A time=00:19:22.61 bitrate=N/A speed=15.2x    frame=28062 fps=365 q=-0.0 size=N/A time=00:19:30.41 bitrate=N/A speed=15.2x    frame=28249 fps=365 q=-0.0 size=N/A time=00:19:38.21 bitrate=N/A speed=15.2x    frame=28450 fps=365 q=-0.0 size=N/A time=00:19:46.60 bitrate=N/A speed=15.2x    frame=28638 fps=365 q=-0.0 size=N/A time=00:19:54.44 bitrate=N/A speed=15.2x    frame=28833 fps=365 q=-0.0 size=N/A time=00:20:02.57 bitrate=N/A speed=15.2x    frame=29022 fps=365 q=-0.0 size=N/A time=00:20:10.45 bitrate=N/A speed=15.2x    frame=29232 fps=366 q=-0.0 size=N/A time=00:20:19.21 bitrate=N/A speed=15.2x    frame=29420 fps=366 q=-0.0 size=N/A time=00:20:27.05 bitrate=N/A speed=15.2x    frame=29606 fps=366 q=-0.0 size=N/A time=00:20:34.81 bitrate=N/A speed=15.2x    frame=29799 fps=366 q=-0.0 size=N/A time=00:20:42.86 bitrate=N/A speed=15.2x    frame=29989 fps=366 q=-0.0 size=N/A time=00:20:50.79 bitrate=N/A speed=15.2x    frame=30168 fps=365 q=-0.0 size=N/A time=00:20:58.25 bitrate=N/A speed=15.2x    frame=30341 fps=365 q=-0.0 size=N/A time=00:21:05.47 bitrate=N/A speed=15.2x    frame=30533 fps=365 q=-0.0 size=N/A time=00:21:13.48 bitrate=N/A speed=15.2x    frame=30728 fps=365 q=-0.0 size=N/A time=00:21:21.61 bitrate=N/A speed=15.2x    frame=30924 fps=365 q=-0.0 size=N/A time=00:21:29.78 bitrate=N/A speed=15.2x    frame=31120 fps=366 q=-0.0 size=N/A time=00:21:37.96 bitrate=N/A speed=15.2x    frame=31313 fps=366 q=-0.0 size=N/A time=00:21:46.01 bitrate=N/A speed=15.3x    frame=31509 fps=366 q=-0.0 size=N/A time=00:21:54.18 bitrate=N/A speed=15.3x    frame=31701 fps=366 q=-0.0 size=N/A time=00:22:02.19 bitrate=N/A speed=15.3x    frame=31890 fps=366 q=-0.0 size=N/A time=00:22:10.07 bitrate=N/A speed=15.3x    frame=32068 fps=366 q=-0.0 size=N/A time=00:22:17.50 bitrate=N/A speed=15.3x    frame=32252 fps=366 q=-0.0 size=N/A time=00:22:25.17 bitrate=N/A speed=15.2x    frame=32406 fps=365 q=-0.0 size=N/A time=00:22:31.60 bitrate=N/A speed=15.2x    frame=32594 fps=365 q=-0.0 size=N/A time=00:22:39.44 bitrate=N/A speed=15.2x    frame=32743 fps=365 q=-0.0 size=N/A time=00:22:45.65 bitrate=N/A speed=15.2x    frame=32915 fps=365 q=-0.0 size=N/A time=00:22:52.82 bitrate=N/A speed=15.2x    frame=33099 fps=365 q=-0.0 size=N/A time=00:23:00.50 bitrate=N/A speed=15.2x    frame=33262 fps=364 q=-0.0 size=N/A time=00:23:07.30 bitrate=N/A speed=15.2x    frame=33444 fps=364 q=-0.0 size=N/A time=00:23:14.89 bitrate=N/A speed=15.2x    frame=33628 fps=364 q=-0.0 size=N/A time=00:23:22.56 bitrate=N/A speed=15.2x    frame=33810 fps=364 q=-0.0 size=N/A time=00:23:30.15 bitrate=N/A speed=15.2x    frame=33998 fps=364 q=-0.0 size=N/A time=00:23:37.99 bitrate=N/A speed=15.2x    [Parsed_psnr_16 @ 00000260e2c7aac0] PSNR y:48.499457 u:50.411239 v:50.427051 average:49.050133 min:41.261588 max:73.206947
[out#0/null @ 00000260d5fc3a00] video:14629KiB audio:266248KiB subtitle:0KiB other streams:0KiB global headers:0KiB muxing overhead: unknown
frame=34045 fps=364 q=-0.0 Lsize=N/A time=00:23:39.96 bitrate=N/A speed=15.2x    
